# xmcd CD database file
#
# Track frame offsets:
#	150
#	26205
#	45495
#
# Disc length: 951 seconds
#
# Revision: 2
# Processed by: cddbd v1.5.2PL0 Copyright (c) Steve Scherf et al.
# Submitted via: CD2WAV32(JP) R3.22
#
DISCID=1e03b503
DTITLE=DATE OF BIRTH - ECHOES OF LOVE
DYEAR=1994
DGENRE=Tokusatsu(J)
TTITLE0=ECHOES OF LOVE (Original Version)
TTITLE1=BELIEVIN' YOU'RE MINE
TTITLE2=ECHOES OF LOVE (Instrumental)
EXTD=
EXTT0=
EXTT1=
EXTT2=
PLAYORDER=
